<?xml version="1.0" encoding="UTF-8" standalone="no"?>
<svg
   xmlns:dc="http://purl.org/dc/elements/1.1/"
   xmlns:cc="http://creativecommons.org/ns#"
   xmlns:rdf="http://www.w3.org/1999/02/22-rdf-syntax-ns#"
   xmlns:svg="http://www.w3.org/2000/svg"
   xmlns="http://www.w3.org/2000/svg"
   xmlns:sodipodi="http://sodipodi.sourceforge.net/DTD/sodipodi-0.dtd"
   xmlns:inkscape="http://www.inkscape.org/namespaces/inkscape"
   version="1.1"
   id="svg126506"
   xml:space="preserve"
   width="265"
   height="265"
   viewBox="0 0 265 265"
   sodipodi:docname="Bull-maTIC1.svg"
   inkscape:version="1.0.1 (c497b03c, 2020-09-10)"><metadata
     id="metadata126512"><rdf:RDF><cc:Work
         rdf:about=""><dc:format>image/svg+xml</dc:format><dc:type
           rdf:resource="http://purl.org/dc/dcmitype/StillImage" /><dc:title></dc:title></cc:Work></rdf:RDF></metadata><defs
     id="defs126510"><clipPath
       clipPathUnits="userSpaceOnUse"
       id="clipPath126522"><path
         d="M 0,595.28 H 841.89 V 0 H 0 Z"
         id="path126520"
         inkscape:connector-curvature="0" /></clipPath><linearGradient
       x1="0"
       y1="0"
       x2="1"
       y2="0"
       gradientUnits="userSpaceOnUse"
       gradientTransform="matrix(-0.6065567,244.44235,244.44235,0.6065567,355.21228,184.79298)"
       spreadMethod="pad"
       id="linearGradient126550"><stop
         style="stop-opacity:1;stop-color:#590d0e"
         offset="0"
         id="stop126540" /><stop
         style="stop-opacity:1;stop-color:#99121a"
         offset="0.12722868"
         id="stop126542" /><stop
         style="stop-opacity:1;stop-color:#99121a"
         offset="0.330049"
         id="stop126544" /><stop
         style="stop-opacity:1;stop-color:#b7101d"
         offset="0.970443"
         id="stop126546" /><stop
         style="stop-opacity:1;stop-color:#b7101d"
         offset="1"
         id="stop126548" /></linearGradient><clipPath
       clipPathUnits="userSpaceOnUse"
       id="clipPath126560"><path
         d="M 0,595.28 H 841.89 V 0 H 0 Z"
         id="path126558"
         inkscape:connector-curvature="0" /></clipPath><linearGradient
       x1="0"
       y1="0"
       x2="1"
       y2="0"
       gradientUnits="userSpaceOnUse"
       gradientTransform="matrix(-0.6065567,244.44235,244.44235,0.6065567,594.12463,185.38582)"
       spreadMethod="pad"
       id="linearGradient126592"><stop
         style="stop-opacity:1;stop-color:#590d0e"
         offset="0"
         id="stop126582" /><stop
         style="stop-opacity:1;stop-color:#99121a"
         offset="0.12722868"
         id="stop126584" /><stop
         style="stop-opacity:1;stop-color:#99121a"
         offset="0.330049"
         id="stop126586" /><stop
         style="stop-opacity:1;stop-color:#b7101d"
         offset="0.970443"
         id="stop126588" /><stop
         style="stop-opacity:1;stop-color:#b7101d"
         offset="1"
         id="stop126590" /></linearGradient><linearGradient
       x1="0"
       y1="0"
       x2="1"
       y2="0"
       gradientUnits="userSpaceOnUse"
       gradientTransform="matrix(-0.6065567,244.44235,244.44235,0.6065567,646.31665,185.51534)"
       spreadMethod="pad"
       id="linearGradient126618"><stop
         style="stop-opacity:1;stop-color:#590d0e"
         offset="0"
         id="stop126608" /><stop
         style="stop-opacity:1;stop-color:#99121a"
         offset="0.12722868"
         id="stop126610" /><stop
         style="stop-opacity:1;stop-color:#99121a"
         offset="0.330049"
         id="stop126612" /><stop
         style="stop-opacity:1;stop-color:#b7101d"
         offset="0.970443"
         id="stop126614" /><stop
         style="stop-opacity:1;stop-color:#b7101d"
         offset="1"
         id="stop126616" /></linearGradient><linearGradient
       x1="0"
       y1="0"
       x2="1"
       y2="0"
       gradientUnits="userSpaceOnUse"
       gradientTransform="matrix(-0.6065567,244.44235,244.44235,0.6065567,704.11029,185.65874)"
       spreadMethod="pad"
       id="linearGradient126644"><stop
         style="stop-opacity:1;stop-color:#590d0e"
         offset="0"
         id="stop126634" /><stop
         style="stop-opacity:1;stop-color:#99121a"
         offset="0.12722868"
         id="stop126636" /><stop
         style="stop-opacity:1;stop-color:#99121a"
         offset="0.330049"
         id="stop126638" /><stop
         style="stop-opacity:1;stop-color:#b7101d"
         offset="0.970443"
         id="stop126640" /><stop
         style="stop-opacity:1;stop-color:#b7101d"
         offset="1"
         id="stop126642" /></linearGradient><clipPath
       clipPathUnits="userSpaceOnUse"
       id="clipPath126654"><path
         d="m 79.508,304.539 c 0,-55.742 43.781,-100.929 97.789,-100.929 v 0 c 54.008,0 97.789,45.187 97.789,100.929 v 0 c 0,55.742 -43.781,100.929 -97.789,100.929 v 0 c -54.008,0 -97.789,-45.187 -97.789,-100.929"
         id="path126652"
         inkscape:connector-curvature="0" /></clipPath><linearGradient
       x1="0"
       y1="0"
       x2="1"
       y2="0"
       gradientUnits="userSpaceOnUse"
       gradientTransform="matrix(91.337822,0,0,-91.337822,103.81514,259.96585)"
       spreadMethod="pad"
       id="linearGradient126714"><stop
         style="stop-opacity:1;stop-color:#590d0e"
         offset="0"
         id="stop126704" /><stop
         style="stop-opacity:1;stop-color:#99121a"
         offset="0.12722868"
         id="stop126706" /><stop
         style="stop-opacity:1;stop-color:#99121a"
         offset="0.330049"
         id="stop126708" /><stop
         style="stop-opacity:1;stop-color:#b7101d"
         offset="0.970443"
         id="stop126710" /><stop
         style="stop-opacity:1;stop-color:#b7101d"
         offset="1"
         id="stop126712" /></linearGradient><linearGradient
       x1="0"
       y1="0"
       x2="1"
       y2="0"
       gradientUnits="userSpaceOnUse"
       gradientTransform="matrix(123.11102,0,0,-123.11102,88.493851,285.03091)"
       spreadMethod="pad"
       id="linearGradient126740"><stop
         style="stop-opacity:1;stop-color:#590d0e"
         offset="0"
         id="stop126730" /><stop
         style="stop-opacity:1;stop-color:#99121a"
         offset="0.12722868"
         id="stop126732" /><stop
         style="stop-opacity:1;stop-color:#99121a"
         offset="0.330049"
         id="stop126734" /><stop
         style="stop-opacity:1;stop-color:#b7101d"
         offset="0.970443"
         id="stop126736" /><stop
         style="stop-opacity:1;stop-color:#b7101d"
         offset="1"
         id="stop126738" /></linearGradient><linearGradient
       x1="0"
       y1="0"
       x2="1"
       y2="0"
       gradientUnits="userSpaceOnUse"
       gradientTransform="matrix(147.71558,0,0,-147.71558,79.965622,311.75165)"
       spreadMethod="pad"
       id="linearGradient126766"><stop
         style="stop-opacity:1;stop-color:#590d0e"
         offset="0"
         id="stop126756" /><stop
         style="stop-opacity:1;stop-color:#99121a"
         offset="0.12722868"
         id="stop126758" /><stop
         style="stop-opacity:1;stop-color:#99121a"
         offset="0.330049"
         id="stop126760" /><stop
         style="stop-opacity:1;stop-color:#b7101d"
         offset="0.970443"
         id="stop126762" /><stop
         style="stop-opacity:1;stop-color:#b7101d"
         offset="1"
         id="stop126764" /></linearGradient><linearGradient
       x1="0"
       y1="0"
       x2="1"
       y2="0"
       gradientUnits="userSpaceOnUse"
       gradientTransform="matrix(122.49119,0,0,-122.49119,78.249222,330.65811)"
       spreadMethod="pad"
       id="linearGradient126792"><stop
         style="stop-opacity:1;stop-color:#590d0e"
         offset="0"
         id="stop126782" /><stop
         style="stop-opacity:1;stop-color:#99121a"
         offset="0.12722868"
         id="stop126784" /><stop
         style="stop-opacity:1;stop-color:#99121a"
         offset="0.330049"
         id="stop126786" /><stop
         style="stop-opacity:1;stop-color:#b7101d"
         offset="0.970443"
         id="stop126788" /><stop
         style="stop-opacity:1;stop-color:#b7101d"
         offset="1"
         id="stop126790" /></linearGradient><linearGradient
       x1="0"
       y1="0"
       x2="1"
       y2="0"
       gradientUnits="userSpaceOnUse"
       gradientTransform="matrix(94.062965,0,0,-94.062965,77.993813,347.10559)"
       spreadMethod="pad"
       id="linearGradient126818"><stop
         style="stop-opacity:1;stop-color:#590d0e"
         offset="0"
         id="stop126808" /><stop
         style="stop-opacity:1;stop-color:#99121a"
         offset="0.12722868"
         id="stop126810" /><stop
         style="stop-opacity:1;stop-color:#99121a"
         offset="0.330049"
         id="stop126812" /><stop
         style="stop-opacity:1;stop-color:#b7101d"
         offset="0.970443"
         id="stop126814" /><stop
         style="stop-opacity:1;stop-color:#b7101d"
         offset="1"
         id="stop126816" /></linearGradient></defs><sodipodi:namedview
     pagecolor="#ffffff"
     bordercolor="#666666"
     borderopacity="1"
     objecttolerance="10"
     gridtolerance="10"
     guidetolerance="10"
     inkscape:pageopacity="0"
     inkscape:pageshadow="2"
     inkscape:window-width="1440"
     inkscape:window-height="766"
     id="namedview126508"
     showgrid="false"
     inkscape:zoom="1.8499135"
     inkscape:cx="141.71815"
     inkscape:cy="143.95455"
     inkscape:window-x="0"
     inkscape:window-y="25"
     inkscape:window-maximized="0"
     inkscape:current-layer="g126514"
     inkscape:document-rotation="0"
     fit-margin-top="0"
     fit-margin-left="0"
     fit-margin-right="0"
     fit-margin-bottom="0"
     showguides="false" /><g
     id="g126514"
     inkscape:groupmode="layer"
     inkscape:label="logoB-maTIC"
     transform="matrix(1.3333333,0,0,-1.3333333,-105.344,536.12665)"><g
       id="g126516"
       style="fill:#2f302d;fill-opacity:1;stroke:#2f302d;stroke-opacity:1"><g
         id="g126518"
         clip-path="url(#clipPath126522)"
         style="fill:#2f302d;fill-opacity:1;stroke:#2f302d;stroke-opacity:1"><g
           id="g126524"
           transform="translate(271.2162,272.8535)"
           style="fill:#2f302d;fill-opacity:1;stroke:#2f302d;stroke-opacity:1" /></g></g><g
       id="g126648"
       style="mix-blend-mode:normal;fill:#ffffff;fill-opacity:1;stroke:#ffffff;stroke-opacity:1"
       transform="translate(23.920038)"><g
         id="g126650"
         clip-path="url(#clipPath126654)"
         style="fill:#ffffff;fill-opacity:1;stroke:#ffffff;stroke-opacity:1"><g
           id="g126656"
           transform="translate(126.1778,230.4562)"
           style="fill:#ffffff;fill-opacity:1;stroke:#ffffff;stroke-opacity:1"><path
             d="m 0,0 c -1.409,5.898 -0.708,11.767 1.867,17.408 l 5.25,-0.251 c 0.1,-5.72 0.845,-11.59 2.594,-17.621 z"
             style="fill:#000000;fill-opacity:1;fill-rule:evenodd;stroke:#ffffff;stroke-opacity:1"
             id="path126658"
             inkscape:connector-curvature="0" /></g><g
           id="g126660"
           transform="translate(134.9268,214.9818)"
           style="fill:#ffffff;fill-opacity:1;stroke:#ffffff;stroke-opacity:1"><path
             d="M 0,0 C -3.91,4.284 -6.557,8.647 -8.035,13.009 L 1.731,12.542 C 3.142,8.32 5.061,4.02 7.612,-0.363 Z"
             style="fill:#000000;fill-opacity:1;fill-rule:evenodd;stroke:#ffffff;stroke-opacity:1"
             id="path126662"
             inkscape:connector-curvature="0" /></g><g
           id="g126664"
           transform="translate(151.8131,201.6681)"
           style="fill:#ffffff;fill-opacity:1;stroke:#ffffff;stroke-opacity:1"><path
             d="m 0,0 c -5.947,3.571 -10.82,7.271 -14.688,11.044 l 6.76,-0.322 C -5.72,7.201 -3.098,3.629 0,0"
             style="fill:#000000;fill-opacity:1;fill-rule:evenodd;stroke:#ffffff;stroke-opacity:1"
             id="path126666"
             inkscape:connector-curvature="0" /></g><g
           id="g126668"
           transform="translate(138.0501,251.8859)"
           style="fill:#ffffff;fill-opacity:1;stroke:#ffffff;stroke-opacity:1"><path
             d="m 0,0 c -0.014,3.382 0.25,6.736 0.803,10.044 2.984,2.691 6.432,5.271 10.316,7.71 -0.4,-5.626 -0.628,-11.772 -0.24,-18.274 z"
             style="fill:#000000;fill-opacity:1;fill-rule:evenodd;stroke:#ffffff;stroke-opacity:1"
             id="path126670"
             inkscape:connector-curvature="0" /></g><g
           id="g126672"
           transform="translate(141.9673,229.7017)"
           style="fill:#ffffff;fill-opacity:1;stroke:#ffffff;stroke-opacity:1"><path
             d="M 0,0 C -2.031,5.902 -3.29,11.821 -3.736,17.676 L 7.33,17.147 C 7.923,11.457 9.044,5.531 10.97,-0.524 Z"
             style="fill:#000000;fill-opacity:1;fill-rule:evenodd;stroke:#ffffff;stroke-opacity:1"
             id="path126674"
             inkscape:connector-curvature="0" /></g><g
           id="g126676"
           transform="translate(173.2031,195.3661)"
           style="fill:#ffffff;fill-opacity:1;stroke:#ffffff;stroke-opacity:1"><path
             d="m 0,0 c -1.249,0.024 -3.967,0.04 -9.556,0.04 -0.474,0.222 -0.936,0.446 -1.401,0.67 -4.585,5.203 -8.557,10.56 -11.884,16.004 l 10.53,-0.503 C -9.079,10.811 -5.037,5.385 0,0"
             style="fill:#000000;fill-opacity:1;fill-rule:evenodd;stroke:#ffffff;stroke-opacity:1"
             id="path126678"
             inkscape:connector-curvature="0" /></g><g
           id="g126680"
           transform="translate(159.3026,228.8733)"
           style="fill:#ffffff;fill-opacity:1;stroke:#ffffff;stroke-opacity:1"><path
             d="M 0,0 C -1.984,5.872 -3.452,11.841 -4.383,17.707 L 6.623,17.181 c 1.202,-5.629 2.759,-11.62 4.641,-17.72 z"
             style="fill:#000000;fill-opacity:1;fill-rule:evenodd;stroke:#ffffff;stroke-opacity:1"
             id="path126682"
             inkscape:connector-curvature="0" /></g><g
           id="g126684"
           transform="translate(165.8416,213.5045)"
           style="fill:#ffffff;fill-opacity:1;stroke:#ffffff;stroke-opacity:1"><path
             d="M 0,0 C -2.175,4.17 -4.068,8.497 -5.671,12.896 L 5.503,12.362 C 5.693,11.768 5.886,11.174 6.083,10.579 7.376,6.675 8.725,2.974 10.1,-0.483 Z"
             style="fill:#000000;fill-opacity:1;fill-rule:evenodd;stroke:#ffffff;stroke-opacity:1"
             id="path126686"
             inkscape:connector-curvature="0" /></g><g
           id="g126688"
           transform="translate(182.6116,195.1331)"
           style="fill:#ffffff;fill-opacity:1;stroke:#ffffff;stroke-opacity:1"><path
             d="m 0,0 c -1.735,0.002 -3.14,0.005 -4.285,0.01 -4.305,4.872 -8.078,10.333 -11.291,16.14 l 9.802,-0.468 c 0.862,-2.083 1.733,-4.067 2.603,-5.942 z"
             style="fill:#000000;fill-opacity:1;fill-rule:evenodd;stroke:#ffffff;stroke-opacity:1"
             id="path126690"
             inkscape:connector-curvature="0" /></g></g></g><g
       id="g126692"
       style="fill:#b6101d;fill-opacity:1;stroke:#b6101d;stroke-opacity:1"
       transform="translate(23.920038)"><g
         id="g126694"
         style="fill:#b6101d;fill-opacity:1;stroke:#b6101d;stroke-opacity:1"><g
           id="g126700"
           style="fill:#b6101d;fill-opacity:1;stroke:#b6101d;stroke-opacity:1"><g
             id="g126702"
             style="fill:#b6101d;fill-opacity:1;stroke:#b6101d;stroke-opacity:1"><path
               d="m 176.539,303.796 c -2.909,-0.606 -20.357,-7.632 -21.643,-7.311 v 0 c -5.045,1.261 -7.16,2.055 -9.602,3.139 v 0 c -29.122,-14.94 -44.708,-34.243 -40.916,-62.337 v 0 c 6.502,-7.504 14.076,-14 22.473,-19.229 v 0 c -17.489,16.706 -7.62,39.421 28.574,61.389 v 0 c 0.909,3.066 1.987,7.321 2.895,10.386 v 0 c 6.981,2.895 13.707,4.939 20.687,7.833 v 0 c 13.082,-6.868 18.419,3.847 15.26,8.946 v 0 c -1.973,3.183 -4.762,4.789 -7.665,4.789 v 0 c -3.634,0 -7.447,-2.515 -10.063,-7.605"
               style="fill:#b6101d;fill-opacity:1;stroke:#b6101d;stroke-opacity:1"
               id="path126716"
               inkscape:connector-curvature="0" /></g></g></g></g><g
       id="g126718"
       style="fill:#b6101d;fill-opacity:1;stroke:#b6101d;stroke-opacity:1"
       transform="translate(23.920038)"><g
         id="g126720"
         style="fill:#b6101d;fill-opacity:1;stroke:#b6101d;stroke-opacity:1"><g
           id="g126726"
           style="fill:#b6101d;fill-opacity:1;stroke:#b6101d;stroke-opacity:1"><g
             id="g126728"
             style="fill:#b6101d;fill-opacity:1;stroke:#b6101d;stroke-opacity:1"><path
               d="m 193.117,336.256 -26.963,-5.405 -10.274,4.211 C 124.066,325.224 84.11,295.081 88.884,261.358 v 0 c 4.402,-9.585 10.222,-18.336 17.184,-25.972 v 0 c -18.739,31.545 13.81,64.706 57.331,80.161 v 0 l 4.583,10.109 26.038,4.955 c 12.685,-7.574 19.827,2.22 16.953,7.484 v 0 c -1.885,3.45 -4.763,5.215 -7.826,5.215 v 0 c -3.506,-10e-4 -7.254,-2.313 -10.03,-7.054"
               style="fill:#b6101d;fill-opacity:1;stroke:#b6101d;stroke-opacity:1"
               id="path126742"
               inkscape:connector-curvature="0" /></g></g></g></g><g
       id="g126744"
       style="fill:#b6101d;fill-opacity:1;stroke:#b6101d;stroke-opacity:1"
       transform="translate(23.920038)"><g
         id="g126746"
         style="fill:#b6101d;fill-opacity:1;stroke:#b6101d;stroke-opacity:1"><g
           id="g126752"
           style="fill:#b6101d;fill-opacity:1;stroke:#b6101d;stroke-opacity:1"><g
             id="g126754"
             style="fill:#b6101d;fill-opacity:1;stroke:#b6101d;stroke-opacity:1"><path
               d="m 209.92,367.607 -28.661,-4.039 -9.274,3.152 C 137.974,365.17 81.96,329.689 79.993,294.423 v 0 C 81.306,280.81 85.24,267.99 91.266,256.515 v 0 c -16.449,39.916 36.002,83.663 83.339,91.373 v 0 l 6.774,8.791 28.6,4.048 c 10.615,-10.274 19.102,-1.666 17.509,4.114 v 0 c -1.292,4.688 -4.576,7.369 -8.486,7.369 v 0 c -2.87,0 -6.078,-1.445 -9.082,-4.603"
               style="fill:#b6101d;fill-opacity:1;stroke:#b6101d;stroke-opacity:1"
               id="path126768"
               inkscape:connector-curvature="0" /></g></g></g></g><g
       id="g126770"
       style="fill:#b6101d;fill-opacity:1;stroke:#b6101d;stroke-opacity:1"
       transform="translate(23.920038)"><g
         id="g126772"
         style="fill:#b6101d;fill-opacity:1;stroke:#b6101d;stroke-opacity:1"><g
           id="g126778"
           style="fill:#b6101d;fill-opacity:1;stroke:#b6101d;stroke-opacity:1"><g
             id="g126780"
             style="fill:#b6101d;fill-opacity:1;stroke:#b6101d;stroke-opacity:1"><path
               d="m 180.933,386.76 -24.931,-6.582 -10.46,1.628 c -33.451,-8.865 -57.898,-34.35 -65.104,-63.293 v 0 c -0.614,-4.568 -0.93,-9.231 -0.93,-13.974 v 0 c 0,-7.352 0.762,-14.522 2.208,-21.427 v 0 c -1.706,9.625 -1.36,19.49 0.622,27.295 v 0 c 6.219,24.488 32.184,43.794 67.181,57.143 v 0 l 7.282,8.622 25.039,5.913 c 10.956,-8.75 19.523,-0.613 18.864,3.437 v 0 c -0.639,3.933 -4.36,6.164 -8.763,6.164 v 0 c -3.658,0 -7.787,-1.541 -11.008,-4.926 M 85.159,270.644 c 0.162,-0.339 0.327,-0.676 0.496,-1.014 v 0 c -0.359,0.841 -0.697,1.694 -1.015,2.556 v 0 c 0.169,-0.516 0.342,-1.03 0.519,-1.542"
               style="fill:#b6101d;fill-opacity:1;stroke:#b6101d;stroke-opacity:1"
               id="path126794"
               inkscape:connector-curvature="0" /></g></g></g></g><g
       id="g126796"
       style="fill:#b6101d;fill-opacity:1;stroke:#b6101d;stroke-opacity:1"
       transform="translate(23.920038)"><g
         id="g126798"
         style="fill:#b6101d;fill-opacity:1;stroke:#b6101d;stroke-opacity:1"><g
           id="g126804"
           style="fill:#b6101d;fill-opacity:1;stroke:#b6101d;stroke-opacity:1"><g
             id="g126806"
             style="fill:#b6101d;fill-opacity:1;stroke:#b6101d;stroke-opacity:1"><path
               d="m 153.596,394.964 -17.014,-5.559 -10.715,-1.353 c -14.73,-7.058 -27.186,-21.31 -35.697,-37.638 v 0 c -5.077,-10.251 -8.507,-21.522 -9.926,-33.428 v 0 c 3.562,18.092 14.956,42.521 48.832,62.43 v 0 l 6.942,7.428 19.165,5.488 c 14.091,-2.43 17.352,2.872 16.82,6.423 v 0 c -0.242,1.609 -2.42,2.84 -5.487,2.84 v 0 c -3.64,0 -8.532,-1.735 -12.92,-6.631"
               style="fill:#b6101d;fill-opacity:1;stroke:#b6101d;stroke-opacity:1"
               id="path126820"
               inkscape:connector-curvature="0" /></g></g></g></g></g></svg>
