<?xml version="1.0" encoding="UTF-8" standalone="no"?>
<svg
   xmlns:dc="http://purl.org/dc/elements/1.1/"
   xmlns:cc="http://creativecommons.org/ns#"
   xmlns:rdf="http://www.w3.org/1999/02/22-rdf-syntax-ns#"
   xmlns:svg="http://www.w3.org/2000/svg"
   xmlns="http://www.w3.org/2000/svg"
   version="1.1"
   id="svg126506"
   xml:space="preserve"
   width="389.74921"
   height="115.55675"
   viewBox="0 0 389.7492 115.55675"><metadata
     id="metadata126512"><rdf:RDF><cc:Work
         rdf:about=""><dc:format>image/svg+xml</dc:format><dc:type
           rdf:resource="http://purl.org/dc/dcmitype/StillImage" /><dc:title></dc:title></cc:Work></rdf:RDF></metadata><defs
     id="defs126510"><clipPath
       clipPathUnits="userSpaceOnUse"
       id="clipPath126522"><path
         d="M 0,595.28 H 841.89 V 0 H 0 Z"
         id="path126520" /></clipPath><linearGradient
       x1="0"
       y1="0"
       x2="1"
       y2="0"
       gradientUnits="userSpaceOnUse"
       gradientTransform="matrix(-0.6065567,244.44235,244.44235,0.6065567,355.21228,184.79298)"
       spreadMethod="pad"
       id="linearGradient126550"><stop
         style="stop-opacity:1;stop-color:#590d0e"
         offset="0"
         id="stop126540" /><stop
         style="stop-opacity:1;stop-color:#99121a"
         offset="0.12722868"
         id="stop126542" /><stop
         style="stop-opacity:1;stop-color:#99121a"
         offset="0.330049"
         id="stop126544" /><stop
         style="stop-opacity:1;stop-color:#b7101d"
         offset="0.970443"
         id="stop126546" /><stop
         style="stop-opacity:1;stop-color:#b7101d"
         offset="1"
         id="stop126548" /></linearGradient><clipPath
       clipPathUnits="userSpaceOnUse"
       id="clipPath126560"><path
         d="M 0,595.28 H 841.89 V 0 H 0 Z"
         id="path126558" /></clipPath><linearGradient
       x1="0"
       y1="0"
       x2="1"
       y2="0"
       gradientUnits="userSpaceOnUse"
       gradientTransform="matrix(-0.6065567,244.44235,244.44235,0.6065567,594.12463,185.38582)"
       spreadMethod="pad"
       id="linearGradient126592"><stop
         style="stop-opacity:1;stop-color:#590d0e"
         offset="0"
         id="stop126582" /><stop
         style="stop-opacity:1;stop-color:#99121a"
         offset="0.12722868"
         id="stop126584" /><stop
         style="stop-opacity:1;stop-color:#99121a"
         offset="0.330049"
         id="stop126586" /><stop
         style="stop-opacity:1;stop-color:#b7101d"
         offset="0.970443"
         id="stop126588" /><stop
         style="stop-opacity:1;stop-color:#b7101d"
         offset="1"
         id="stop126590" /></linearGradient><linearGradient
       x1="0"
       y1="0"
       x2="1"
       y2="0"
       gradientUnits="userSpaceOnUse"
       gradientTransform="matrix(-0.6065567,244.44235,244.44235,0.6065567,646.31665,185.51534)"
       spreadMethod="pad"
       id="linearGradient126618"><stop
         style="stop-opacity:1;stop-color:#590d0e"
         offset="0"
         id="stop126608" /><stop
         style="stop-opacity:1;stop-color:#99121a"
         offset="0.12722868"
         id="stop126610" /><stop
         style="stop-opacity:1;stop-color:#99121a"
         offset="0.330049"
         id="stop126612" /><stop
         style="stop-opacity:1;stop-color:#b7101d"
         offset="0.970443"
         id="stop126614" /><stop
         style="stop-opacity:1;stop-color:#b7101d"
         offset="1"
         id="stop126616" /></linearGradient><linearGradient
       x1="0"
       y1="0"
       x2="1"
       y2="0"
       gradientUnits="userSpaceOnUse"
       gradientTransform="matrix(-0.6065567,244.44235,244.44235,0.6065567,704.11029,185.65874)"
       spreadMethod="pad"
       id="linearGradient126644"><stop
         style="stop-opacity:1;stop-color:#590d0e"
         offset="0"
         id="stop126634" /><stop
         style="stop-opacity:1;stop-color:#99121a"
         offset="0.12722868"
         id="stop126636" /><stop
         style="stop-opacity:1;stop-color:#99121a"
         offset="0.330049"
         id="stop126638" /><stop
         style="stop-opacity:1;stop-color:#b7101d"
         offset="0.970443"
         id="stop126640" /><stop
         style="stop-opacity:1;stop-color:#b7101d"
         offset="1"
         id="stop126642" /></linearGradient><clipPath
       clipPathUnits="userSpaceOnUse"
       id="clipPath126654"><path
         d="m 79.508,304.539 c 0,-55.742 43.781,-100.929 97.789,-100.929 v 0 c 54.008,0 97.789,45.187 97.789,100.929 v 0 c 0,55.742 -43.781,100.929 -97.789,100.929 v 0 c -54.008,0 -97.789,-45.187 -97.789,-100.929"
         id="path126652" /></clipPath><linearGradient
       x1="0"
       y1="0"
       x2="1"
       y2="0"
       gradientUnits="userSpaceOnUse"
       gradientTransform="matrix(91.337822,0,0,-91.337822,103.81514,259.96585)"
       spreadMethod="pad"
       id="linearGradient126714"><stop
         style="stop-opacity:1;stop-color:#590d0e"
         offset="0"
         id="stop126704" /><stop
         style="stop-opacity:1;stop-color:#99121a"
         offset="0.12722868"
         id="stop126706" /><stop
         style="stop-opacity:1;stop-color:#99121a"
         offset="0.330049"
         id="stop126708" /><stop
         style="stop-opacity:1;stop-color:#b7101d"
         offset="0.970443"
         id="stop126710" /><stop
         style="stop-opacity:1;stop-color:#b7101d"
         offset="1"
         id="stop126712" /></linearGradient><linearGradient
       x1="0"
       y1="0"
       x2="1"
       y2="0"
       gradientUnits="userSpaceOnUse"
       gradientTransform="matrix(123.11102,0,0,-123.11102,88.493851,285.03091)"
       spreadMethod="pad"
       id="linearGradient126740"><stop
         style="stop-opacity:1;stop-color:#590d0e"
         offset="0"
         id="stop126730" /><stop
         style="stop-opacity:1;stop-color:#99121a"
         offset="0.12722868"
         id="stop126732" /><stop
         style="stop-opacity:1;stop-color:#99121a"
         offset="0.330049"
         id="stop126734" /><stop
         style="stop-opacity:1;stop-color:#b7101d"
         offset="0.970443"
         id="stop126736" /><stop
         style="stop-opacity:1;stop-color:#b7101d"
         offset="1"
         id="stop126738" /></linearGradient><linearGradient
       x1="0"
       y1="0"
       x2="1"
       y2="0"
       gradientUnits="userSpaceOnUse"
       gradientTransform="matrix(147.71558,0,0,-147.71558,79.965622,311.75165)"
       spreadMethod="pad"
       id="linearGradient126766"><stop
         style="stop-opacity:1;stop-color:#590d0e"
         offset="0"
         id="stop126756" /><stop
         style="stop-opacity:1;stop-color:#99121a"
         offset="0.12722868"
         id="stop126758" /><stop
         style="stop-opacity:1;stop-color:#99121a"
         offset="0.330049"
         id="stop126760" /><stop
         style="stop-opacity:1;stop-color:#b7101d"
         offset="0.970443"
         id="stop126762" /><stop
         style="stop-opacity:1;stop-color:#b7101d"
         offset="1"
         id="stop126764" /></linearGradient><linearGradient
       x1="0"
       y1="0"
       x2="1"
       y2="0"
       gradientUnits="userSpaceOnUse"
       gradientTransform="matrix(122.49119,0,0,-122.49119,78.249222,330.65811)"
       spreadMethod="pad"
       id="linearGradient126792"><stop
         style="stop-opacity:1;stop-color:#590d0e"
         offset="0"
         id="stop126782" /><stop
         style="stop-opacity:1;stop-color:#99121a"
         offset="0.12722868"
         id="stop126784" /><stop
         style="stop-opacity:1;stop-color:#99121a"
         offset="0.330049"
         id="stop126786" /><stop
         style="stop-opacity:1;stop-color:#b7101d"
         offset="0.970443"
         id="stop126788" /><stop
         style="stop-opacity:1;stop-color:#b7101d"
         offset="1"
         id="stop126790" /></linearGradient><linearGradient
       x1="0"
       y1="0"
       x2="1"
       y2="0"
       gradientUnits="userSpaceOnUse"
       gradientTransform="matrix(94.062965,0,0,-94.062965,77.993813,347.10559)"
       spreadMethod="pad"
       id="linearGradient126818"><stop
         style="stop-opacity:1;stop-color:#590d0e"
         offset="0"
         id="stop126808" /><stop
         style="stop-opacity:1;stop-color:#99121a"
         offset="0.12722868"
         id="stop126810" /><stop
         style="stop-opacity:1;stop-color:#99121a"
         offset="0.330049"
         id="stop126812" /><stop
         style="stop-opacity:1;stop-color:#b7101d"
         offset="0.970443"
         id="stop126814" /><stop
         style="stop-opacity:1;stop-color:#b7101d"
         offset="1"
         id="stop126816" /></linearGradient></defs><g
     id="g126514"
     transform="matrix(0.58219386,0,0,-0.58219386,-45.997972,234.09724)"><g
       id="g126516"
       style="fill:#2f302d;fill-opacity:1;stroke:#2f302d;stroke-opacity:1"><g
         id="g126518"
         clip-path="url(#clipPath126522)"
         style="fill:#2f302d;fill-opacity:1;stroke:#2f302d;stroke-opacity:1"><g
           id="g126524"
           transform="translate(271.2162,272.8535)"
           style="fill:#2f302d;fill-opacity:1;stroke:#2f302d;stroke-opacity:1"><path
             d="m 0,0 h 23.679 c 5.26,0 9.304,1.053 12.122,3.168 2.63,1.918 3.948,5.185 3.948,9.794 0,4.608 -1.318,7.966 -3.948,10.083 -2.443,1.916 -6.579,2.879 -12.402,2.879 L 0,25.924 Z m 0,42.92 h 22.835 c 4.884,0 8.457,0.864 10.711,2.592 2.255,1.728 3.384,4.416 3.384,8.066 0,3.646 -1.129,6.337 -3.384,8.066 C 31.665,63.178 28,63.948 22.552,63.948 H 0 Z m -19.17,-60.78 v 88.722 c 0,2.879 0.987,5.328 2.96,7.345 1.972,2.016 4.369,3.024 7.187,3.024 H 26.5 c 9.959,0 17.569,-2.115 22.833,-6.337 5.259,-4.609 7.893,-10.852 7.893,-18.724 0,-4.995 -1.035,-9.217 -3.099,-12.674 -2.07,-3.268 -4.983,-5.86 -8.74,-7.777 4.884,-2.116 8.641,-5.091 11.275,-8.931 2.441,-3.649 3.665,-8.452 3.665,-14.402 0,-9.605 -3.007,-17.095 -9.02,-22.468 -6.203,-5.186 -14.942,-7.778 -26.217,-7.778 z"
             style="fill:#2f302d;fill-opacity:1;fill-rule:nonzero;stroke:#2f302d;stroke-opacity:1"
             id="path126526" /></g></g></g><g
       id="g126528"
       style="fill:#b6101d;fill-opacity:1;stroke:#b6101d;stroke-opacity:1"><g
         id="g126530"
         style="fill:#b6101d;fill-opacity:1;stroke:#b6101d;stroke-opacity:1"><g
           id="g126536"
           style="fill:#b6101d;fill-opacity:1;stroke:#b6101d;stroke-opacity:1"><g
             id="g126538"
             style="fill:#b6101d;fill-opacity:1;stroke:#b6101d;stroke-opacity:1"><path
               d="m 343.103,301.371 c -5.075,0 -7.612,-2.594 -7.612,-7.777 v 0 -8.354 h 38.905 v 16.131 z"
               style="fill:#b6101d;fill-opacity:1;stroke:#b6101d;stroke-opacity:1"
               id="path126552" /></g></g></g></g><g
       id="g126554"
       style="fill:#2f302d;fill-opacity:1;stroke:#2f302d;stroke-opacity:1"><g
         id="g126556"
         clip-path="url(#clipPath126560)"
         style="fill:#2f302d;fill-opacity:1;stroke:#2f302d;stroke-opacity:1"><g
           id="g126562"
           transform="translate(443.7338,254.9936)"
           style="fill:#2f302d;fill-opacity:1;stroke:#2f302d;stroke-opacity:1"><path
             d="m 0,0 h -19.451 v 44.937 4.033 c 0,4.609 -1.366,7.966 -4.088,10.082 -2.726,2.111 -5.779,3.168 -9.161,3.168 -3.384,0 -6.393,-1.057 -9.023,-3.168 -2.633,-2.116 -3.945,-5.473 -3.945,-10.082 V 0 h -19.734 v 44.937 c 0,13.056 3.334,21.793 10.007,26.213 6.67,4.415 14.048,6.814 22.131,7.201 4.321,0 8.549,-0.481 12.686,-1.44 4.132,-0.963 7.893,-2.881 11.277,-5.761 2.818,2.494 6.152,4.271 10.007,5.328 3.849,1.054 7.845,1.679 11.981,1.873 8.269,0 15.879,-2.21 22.833,-6.625 6.953,-4.42 10.431,-13.35 10.431,-26.789 L 45.951,0 H 36.086 C 33.266,0 30.963,0.909 29.178,2.737 27.39,4.56 26.5,6.913 26.5,9.794 V 48.97 c 0,4.609 -1.364,7.966 -4.088,10.082 -2.726,2.111 -5.779,3.168 -9.161,3.168 C 9.867,62.22 6.81,61.163 4.088,59.052 1.362,56.936 0,53.579 0,48.97 v -4.033 z"
             style="fill:#2f302d;fill-opacity:1;fill-rule:nonzero;stroke:#2f302d;stroke-opacity:1"
             id="path126564" /></g><g
           id="g126566"
           transform="translate(538.456,293.5931)"
           style="fill:#2f302d;fill-opacity:1;stroke:#2f302d;stroke-opacity:1"><path
             d="m 0,0 c -2.634,-1.345 -6.299,-2.592 -10.994,-3.745 l -6.483,-1.44 c -3.384,-0.963 -5.827,-2.21 -7.33,-3.744 -1.318,-2.116 -1.974,-4.227 -1.974,-6.338 0,-2.88 0.847,-5.185 2.538,-6.913 1.691,-1.54 4.132,-2.304 7.329,-2.304 5.26,0 9.396,1.534 12.405,4.609 C -1.507,-16.806 0,-12.58 0,-7.201 Z m 4.511,-35.43 c -3.947,-2.117 -8.132,-3.409 -12.545,-3.89 -4.419,-0.477 -8.316,-0.719 -11.7,-0.719 -6.766,0 -12.685,1.872 -17.76,5.616 -5.073,3.745 -7.61,9.939 -7.61,18.58 0,8.065 2.298,13.826 6.906,17.283 4.603,3.457 10.474,5.761 17.62,6.914 0.938,0 2.066,0.143 3.382,0.432 1.313,0.288 2.82,0.526 4.511,0.72 8.268,1.152 12.404,3.645 12.404,7.49 0,2.879 -1.458,4.752 -4.371,5.616 -2.914,0.865 -5.592,1.297 -8.033,1.297 -2.634,0 -4.983,-0.387 -7.049,-1.153 -2.07,-0.77 -3.57,-2.209 -4.509,-4.32 H -43.13 c 0.747,5.95 3.381,10.847 7.893,14.69 5.072,4.415 12.305,6.626 21.705,6.626 10.523,0 18.418,-1.828 23.682,-5.473 5.448,-3.844 8.174,-9.218 8.174,-16.132 V -8.065 c 0,-7.684 -1.364,-13.683 -4.086,-18.004 -2.728,-4.32 -5.97,-7.445 -9.727,-9.361"
             style="fill:#2f302d;fill-opacity:1;fill-rule:nonzero;stroke:#2f302d;stroke-opacity:1"
             id="path126568" /></g></g></g><g
       id="g126570"
       style="fill:#b6101d;fill-opacity:1;stroke:#b6101d;stroke-opacity:1"><g
         id="g126572"
         style="fill:#b6101d;fill-opacity:1;stroke:#b6101d;stroke-opacity:1"><g
           id="g126578"
           style="fill:#b6101d;fill-opacity:1;stroke:#b6101d;stroke-opacity:1"><g
             id="g126580"
             style="fill:#b6101d;fill-opacity:1;stroke:#b6101d;stroke-opacity:1"><path
               d="m 565.254,354.084 c -2.818,0 -5.215,-1.007 -7.186,-3.024 v 0 c -1.975,-2.017 -2.961,-4.465 -2.961,-7.345 v 0 -7.202 h 28.754 v -81.52 h 20.017 v 81.52 h 28.471 v 17.571 z"
               style="fill:#b6101d;fill-opacity:1;stroke:#b6101d;stroke-opacity:1"
               id="path126594" /></g></g></g></g><g
       id="g126596"
       style="fill:#b6101d;fill-opacity:1;stroke:#b6101d;stroke-opacity:1"><g
         id="g126598"
         style="fill:#b6101d;fill-opacity:1;stroke:#b6101d;stroke-opacity:1"><g
           id="g126604"
           style="fill:#b6101d;fill-opacity:1;stroke:#b6101d;stroke-opacity:1"><g
             id="g126606"
             style="fill:#b6101d;fill-opacity:1;stroke:#b6101d;stroke-opacity:1"><path
               d="m 646.161,354.084 c -2.818,0 -5.214,-1.007 -7.186,-3.024 v 0 c -1.974,-2.017 -2.961,-4.465 -2.961,-7.345 v 0 -88.722 h 20.015 v 99.091 z"
               style="fill:#b6101d;fill-opacity:1;stroke:#b6101d;stroke-opacity:1"
               id="path126620" /></g></g></g></g><g
       id="g126622"
       style="fill:#b6101d;fill-opacity:1;stroke:#b6101d;stroke-opacity:1"><g
         id="g126624"
         style="fill:#b6101d;fill-opacity:1;stroke:#b6101d;stroke-opacity:1"><g
           id="g126630"
           style="fill:#b6101d;fill-opacity:1;stroke:#b6101d;stroke-opacity:1"><g
             id="g126632"
             style="fill:#b6101d;fill-opacity:1;stroke:#b6101d;stroke-opacity:1"><path
               d="m 671.514,343.427 c -7.893,-8.642 -11.838,-21.605 -11.838,-38.888 v 0 c 0,-16.9 3.849,-29.67 11.557,-38.311 v 0 c 7.705,-9.03 18.888,-13.539 33.547,-13.539 v 0 c 12.589,0 22.739,3.168 30.448,9.506 v 0 c 7.513,6.527 11.741,15.555 12.685,27.078 v 0 h -19.451 c -1.507,-6.337 -4.045,-10.946 -7.612,-13.827 v 0 c -3.949,-3.075 -8.929,-4.609 -14.942,-4.609 v 0 c -8.646,0 -15.131,2.974 -19.452,8.93 v 0 c -4.511,5.761 -6.765,14.015 -6.765,24.772 v 0 c 0,11.136 2.254,19.588 6.765,25.35 v 0 c 4.696,5.76 11.37,8.641 20.015,8.641 v 0 c 6.202,0 11.181,-1.44 14.942,-4.321 v 0 c 1.877,-1.922 3.476,-4.132 4.793,-6.625 v 0 c 1.876,-4.034 5.074,-6.049 9.585,-6.049 v 0 h 12.122 c -0.944,11.135 -4.888,19.776 -11.841,25.924 v 0 c -7.329,6.338 -17.196,9.506 -29.601,9.506 v 0 c -15.222,0 -26.877,-4.514 -34.957,-13.538"
               style="fill:#b6101d;fill-opacity:1;stroke:#b6101d;stroke-opacity:1"
               id="path126646" /></g></g></g></g><g
       id="g126648"
       style="stroke:#2f302d;stroke-opacity:1"><g
         id="g126650"
         clip-path="url(#clipPath126654)"
         style="stroke:#2f302d;stroke-opacity:1"><g
           id="g126656"
           transform="translate(126.1778,230.4562)"
           style="stroke:#2f302d;stroke-opacity:1"><path
             d="m 0,0 c -1.409,5.898 -0.708,11.767 1.867,17.408 l 5.25,-0.251 c 0.1,-5.72 0.845,-11.59 2.594,-17.621 z"
             style="fill:#30322e;fill-opacity:1;fill-rule:evenodd;stroke:#2f302d;stroke-opacity:1"
             id="path126658" /></g><g
           id="g126660"
           transform="translate(134.9268,214.9818)"
           style="stroke:#2f302d;stroke-opacity:1"><path
             d="M 0,0 C -3.91,4.284 -6.557,8.647 -8.035,13.009 L 1.731,12.542 C 3.142,8.32 5.061,4.02 7.612,-0.363 Z"
             style="fill:#30322e;fill-opacity:1;fill-rule:evenodd;stroke:#2f302d;stroke-opacity:1"
             id="path126662" /></g><g
           id="g126664"
           transform="translate(151.8131,201.6681)"
           style="stroke:#2f302d;stroke-opacity:1"><path
             d="m 0,0 c -5.947,3.571 -10.82,7.271 -14.688,11.044 l 6.76,-0.322 C -5.72,7.201 -3.098,3.629 0,0"
             style="fill:#30322e;fill-opacity:1;fill-rule:evenodd;stroke:#2f302d;stroke-opacity:1"
             id="path126666" /></g><g
           id="g126668"
           transform="translate(138.0501,251.8859)"
           style="stroke:#2f302d;stroke-opacity:1"><path
             d="m 0,0 c -0.014,3.382 0.25,6.736 0.803,10.044 2.984,2.691 6.432,5.271 10.316,7.71 -0.4,-5.626 -0.628,-11.772 -0.24,-18.274 z"
             style="fill:#30322e;fill-opacity:1;fill-rule:evenodd;stroke:#2f302d;stroke-opacity:1"
             id="path126670" /></g><g
           id="g126672"
           transform="translate(141.9673,229.7017)"
           style="stroke:#2f302d;stroke-opacity:1"><path
             d="M 0,0 C -2.031,5.902 -3.29,11.821 -3.736,17.676 L 7.33,17.147 C 7.923,11.457 9.044,5.531 10.97,-0.524 Z"
             style="fill:#30322e;fill-opacity:1;fill-rule:evenodd;stroke:#2f302d;stroke-opacity:1"
             id="path126674" /></g><g
           id="g126676"
           transform="translate(173.2031,195.3661)"
           style="stroke:#2f302d;stroke-opacity:1"><path
             d="m 0,0 c -1.249,0.024 -3.967,0.04 -9.556,0.04 -0.474,0.222 -0.936,0.446 -1.401,0.67 -4.585,5.203 -8.557,10.56 -11.884,16.004 l 10.53,-0.503 C -9.079,10.811 -5.037,5.385 0,0"
             style="fill:#30322e;fill-opacity:1;fill-rule:evenodd;stroke:#2f302d;stroke-opacity:1"
             id="path126678" /></g><g
           id="g126680"
           transform="translate(159.3026,228.8733)"
           style="stroke:#2f302d;stroke-opacity:1"><path
             d="M 0,0 C -1.984,5.872 -3.452,11.841 -4.383,17.707 L 6.623,17.181 c 1.202,-5.629 2.759,-11.62 4.641,-17.72 z"
             style="fill:#30322e;fill-opacity:1;fill-rule:evenodd;stroke:#2f302d;stroke-opacity:1"
             id="path126682" /></g><g
           id="g126684"
           transform="translate(165.8416,213.5045)"
           style="stroke:#2f302d;stroke-opacity:1"><path
             d="M 0,0 C -2.175,4.17 -4.068,8.497 -5.671,12.896 L 5.503,12.362 C 5.693,11.768 5.886,11.174 6.083,10.579 7.376,6.675 8.725,2.974 10.1,-0.483 Z"
             style="fill:#30322e;fill-opacity:1;fill-rule:evenodd;stroke:#2f302d;stroke-opacity:1"
             id="path126686" /></g><g
           id="g126688"
           transform="translate(182.6116,195.1331)"
           style="stroke:#2f302d;stroke-opacity:1"><path
             d="m 0,0 c -1.735,0.002 -3.14,0.005 -4.285,0.01 -4.305,4.872 -8.078,10.333 -11.291,16.14 l 9.802,-0.468 c 0.862,-2.083 1.733,-4.067 2.603,-5.942 z"
             style="fill:#30322e;fill-opacity:1;fill-rule:evenodd;stroke:#2f302d;stroke-opacity:1"
             id="path126690" /></g></g></g><g
       id="g126692"
       style="fill:#b6101d;fill-opacity:1;stroke:#b6101d;stroke-opacity:1"><g
         id="g126694"
         style="fill:#b6101d;fill-opacity:1;stroke:#b6101d;stroke-opacity:1"><g
           id="g126700"
           style="fill:#b6101d;fill-opacity:1;stroke:#b6101d;stroke-opacity:1"><g
             id="g126702"
             style="fill:#b6101d;fill-opacity:1;stroke:#b6101d;stroke-opacity:1"><path
               d="m 176.539,303.796 c -2.909,-0.606 -20.357,-7.632 -21.643,-7.311 v 0 c -5.045,1.261 -7.16,2.055 -9.602,3.139 v 0 c -29.122,-14.94 -44.708,-34.243 -40.916,-62.337 v 0 c 6.502,-7.504 14.076,-14 22.473,-19.229 v 0 c -17.489,16.706 -7.62,39.421 28.574,61.389 v 0 c 0.909,3.066 1.987,7.321 2.895,10.386 v 0 c 6.981,2.895 13.707,4.939 20.687,7.833 v 0 c 13.082,-6.868 18.419,3.847 15.26,8.946 v 0 c -1.973,3.183 -4.762,4.789 -7.665,4.789 v 0 c -3.634,0 -7.447,-2.515 -10.063,-7.605"
               style="fill:#b6101d;fill-opacity:1;stroke:#b6101d;stroke-opacity:1"
               id="path126716" /></g></g></g></g><g
       id="g126718"
       style="fill:#b6101d;fill-opacity:1;stroke:#b6101d;stroke-opacity:1"><g
         id="g126720"
         style="fill:#b6101d;fill-opacity:1;stroke:#b6101d;stroke-opacity:1"><g
           id="g126726"
           style="fill:#b6101d;fill-opacity:1;stroke:#b6101d;stroke-opacity:1"><g
             id="g126728"
             style="fill:#b6101d;fill-opacity:1;stroke:#b6101d;stroke-opacity:1"><path
               d="m 193.117,336.256 -26.963,-5.405 -10.274,4.211 C 124.066,325.224 84.11,295.081 88.884,261.358 v 0 c 4.402,-9.585 10.222,-18.336 17.184,-25.972 v 0 c -18.739,31.545 13.81,64.706 57.331,80.161 v 0 l 4.583,10.109 26.038,4.955 c 12.685,-7.574 19.827,2.22 16.953,7.484 v 0 c -1.885,3.45 -4.763,5.215 -7.826,5.215 v 0 c -3.506,-10e-4 -7.254,-2.313 -10.03,-7.054"
               style="fill:#b6101d;fill-opacity:1;stroke:#b6101d;stroke-opacity:1"
               id="path126742" /></g></g></g></g><g
       id="g126744"
       style="fill:#b6101d;fill-opacity:1;stroke:#b6101d;stroke-opacity:1"><g
         id="g126746"
         style="fill:#b6101d;fill-opacity:1;stroke:#b6101d;stroke-opacity:1"><g
           id="g126752"
           style="fill:#b6101d;fill-opacity:1;stroke:#b6101d;stroke-opacity:1"><g
             id="g126754"
             style="fill:#b6101d;fill-opacity:1;stroke:#b6101d;stroke-opacity:1"><path
               d="m 209.92,367.607 -28.661,-4.039 -9.274,3.152 C 137.974,365.17 81.96,329.689 79.993,294.423 v 0 C 81.306,280.81 85.24,267.99 91.266,256.515 v 0 c -16.449,39.916 36.002,83.663 83.339,91.373 v 0 l 6.774,8.791 28.6,4.048 c 10.615,-10.274 19.102,-1.666 17.509,4.114 v 0 c -1.292,4.688 -4.576,7.369 -8.486,7.369 v 0 c -2.87,0 -6.078,-1.445 -9.082,-4.603"
               style="fill:#b6101d;fill-opacity:1;stroke:#b6101d;stroke-opacity:1"
               id="path126768" /></g></g></g></g><g
       id="g126770"
       style="fill:#b6101d;fill-opacity:1;stroke:#b6101d;stroke-opacity:1"><g
         id="g126772"
         style="fill:#b6101d;fill-opacity:1;stroke:#b6101d;stroke-opacity:1"><g
           id="g126778"
           style="fill:#b6101d;fill-opacity:1;stroke:#b6101d;stroke-opacity:1"><g
             id="g126780"
             style="fill:#b6101d;fill-opacity:1;stroke:#b6101d;stroke-opacity:1"><path
               d="m 180.933,386.76 -24.931,-6.582 -10.46,1.628 c -33.451,-8.865 -57.898,-34.35 -65.104,-63.293 v 0 c -0.614,-4.568 -0.93,-9.231 -0.93,-13.974 v 0 c 0,-7.352 0.762,-14.522 2.208,-21.427 v 0 c -1.706,9.625 -1.36,19.49 0.622,27.295 v 0 c 6.219,24.488 32.184,43.794 67.181,57.143 v 0 l 7.282,8.622 25.039,5.913 c 10.956,-8.75 19.523,-0.613 18.864,3.437 v 0 c -0.639,3.933 -4.36,6.164 -8.763,6.164 v 0 c -3.658,0 -7.787,-1.541 -11.008,-4.926 M 85.159,270.644 c 0.162,-0.339 0.327,-0.676 0.496,-1.014 v 0 c -0.359,0.841 -0.697,1.694 -1.015,2.556 v 0 c 0.169,-0.516 0.342,-1.03 0.519,-1.542"
               style="fill:#b6101d;fill-opacity:1;stroke:#b6101d;stroke-opacity:1"
               id="path126794" /></g></g></g></g><g
       id="g126796"
       style="fill:#b6101d;fill-opacity:1;stroke:#b6101d;stroke-opacity:1"><g
         id="g126798"
         style="fill:#b6101d;fill-opacity:1;stroke:#b6101d;stroke-opacity:1"><g
           id="g126804"
           style="fill:#b6101d;fill-opacity:1;stroke:#b6101d;stroke-opacity:1"><g
             id="g126806"
             style="fill:#b6101d;fill-opacity:1;stroke:#b6101d;stroke-opacity:1"><path
               d="m 153.596,394.964 -17.014,-5.559 -10.715,-1.353 c -14.73,-7.058 -27.186,-21.31 -35.697,-37.638 v 0 c -5.077,-10.251 -8.507,-21.522 -9.926,-33.428 v 0 c 3.562,18.092 14.956,42.521 48.832,62.43 v 0 l 6.942,7.428 19.165,5.488 c 14.091,-2.43 17.352,2.872 16.82,6.423 v 0 c -0.242,1.609 -2.42,2.84 -5.487,2.84 v 0 c -3.64,0 -8.532,-1.735 -12.92,-6.631"
               style="fill:#b6101d;fill-opacity:1;stroke:#b6101d;stroke-opacity:1"
               id="path126820" /></g></g></g></g></g></svg>
